<?xml version="1.0" encoding="UTF-8"?>
<svg width="17px" height="15px" viewBox="0 0 17 15" version="1.1" xmlns="http://www.w3.org/2000/svg" xmlns:xlink="http://www.w3.org/1999/xlink">
    <desc>Created with Sketch.</desc>
    <g id="Page-1" stroke="none" stroke-width="1" fill="none" fill-rule="evenodd">
        <g id="novoc-main" transform="translate(-307.000000, -1682.000000)" fill="#079FC2" fill-rule="nonzero">
            <g id="недвижка" transform="translate(0.000000, 1168.000000)">
                <g id="карточка" transform="translate(130.000000, 60.000000)">
                    <g id="рассрочка" transform="translate(167.000000, 443.000000)">
                        <g id="calendar" transform="translate(10.595041, 11.000000)">
                            <path d="M0.615384615,14.782906 L15.3709402,14.782906 C15.6854701,14.782906 15.9316239,14.5367521 15.9316239,14.2222222 L15.9316239,1.70940171 C15.9316239,1.39487179 15.6854701,1.14871795 15.3709402,1.14871795 L12.5948718,1.14871795 L12.5948718,0.67008547 C12.5948718,0.355555556 12.3487179,0.109401709 12.034188,0.109401709 C11.7196581,0.109401709 11.4735043,0.355555556 11.4735043,0.67008547 L11.4735043,1.14871795 L4.60854701,1.14871795 L4.60854701,0.67008547 C4.60854701,0.355555556 4.36239316,0.109401709 4.04786325,0.109401709 C3.73333333,0.109401709 3.48717949,0.355555556 3.48717949,0.67008547 L3.48717949,1.14871795 L0.615384615,1.14871795 C0.300854701,1.14871795 0.0547008547,1.39487179 0.0547008547,1.70940171 L0.0547008547,14.2358974 C0.0547008547,14.5367521 0.314529915,14.782906 0.615384615,14.782906 Z M1.17606838,2.27008547 L3.48717949,2.27008547 L3.48717949,2.57094017 C3.48717949,2.88547009 3.73333333,3.13162393 4.04786325,3.13162393 C4.36239316,3.13162393 4.60854701,2.88547009 4.60854701,2.57094017 L4.60854701,2.27008547 L11.4735043,2.27008547 L11.4735043,2.57094017 C11.4735043,2.88547009 11.7196581,3.13162393 12.034188,3.13162393 C12.3487179,3.13162393 12.5948718,2.88547009 12.5948718,2.57094017 L12.5948718,2.27008547 L14.8239316,2.27008547 L14.8239316,3.71965812 L1.17606838,3.71965812 L1.17606838,2.27008547 L1.17606838,2.27008547 Z M1.17606838,4.84102564 L14.8102564,4.84102564 L14.8102564,13.6752137 L1.17606838,13.6752137 L1.17606838,4.84102564 Z" id="Shape"></path>
                            <path d="M12.034188,7.41196581 L3.96581197,7.41196581 C3.65128205,7.41196581 3.40512821,7.65811966 3.40512821,7.97264957 C3.40512821,8.28717949 3.65128205,8.53333333 3.96581197,8.53333333 L12.034188,8.53333333 C12.3487179,8.53333333 12.5948718,8.28717949 12.5948718,7.97264957 C12.5948718,7.65811966 12.3487179,7.41196581 12.034188,7.41196581 Z" id="Shape"></path>
                            <path d="M8,10.1196581 L3.96581197,10.1196581 C3.65128205,10.1196581 3.40512821,10.365812 3.40512821,10.6803419 C3.40512821,10.9948718 3.65128205,11.2410256 3.96581197,11.2410256 L8,11.2410256 C8.31452991,11.2410256 8.56068376,10.9948718 8.56068376,10.6803419 C8.56068376,10.365812 8.31452991,10.1196581 8,10.1196581 Z" id="Shape"></path>
                        </g>
                    </g>
                </g>
            </g>
        </g>
    </g>
</svg>