<?xml version="1.0" encoding="UTF-8"?>
<svg width="16px" height="15px" viewBox="0 0 16 15" version="1.1" xmlns="http://www.w3.org/2000/svg" xmlns:xlink="http://www.w3.org/1999/xlink">
    <desc>Created with Sketch.</desc>
    <g id="Page-1" stroke="none" stroke-width="1" fill="none" fill-rule="evenodd">
        <g id="novoc-main" transform="translate(-1398.000000, -366.000000)" fill="#FFFFFF" fill-rule="nonzero">
            <g id="на-показ" transform="translate(1370.000000, 355.000000)">
                <g id="calendar" transform="translate(28.000000, 11.000000)">
                    <path d="M0.565030146,15 L15.4349699,15 C15.751938,15 16,14.7483691 16,14.4268406 L16,1.63560112 C16,1.31407269 15.751938,1.06244175 15.4349699,1.06244175 L12.6373816,1.06244175 L12.6373816,0.573159366 C12.6373816,0.251630941 12.3893196,0 12.0723514,0 C11.7553833,0 11.5073213,0.251630941 11.5073213,0.573159366 L11.5073213,1.06244175 L4.58914729,1.06244175 L4.58914729,0.573159366 C4.58914729,0.251630941 4.34108527,0 4.02411714,0 C3.70714901,0 3.45908699,0.251630941 3.45908699,0.573159366 L3.45908699,1.06244175 L0.565030146,1.06244175 C0.248062016,1.06244175 0,1.31407269 0,1.63560112 L0,14.4408201 C0,14.7483691 0.261843239,15 0.565030146,15 Z M1.13006029,2.20876048 L3.45908699,2.20876048 L3.45908699,2.51630941 C3.45908699,2.83783784 3.70714901,3.08946878 4.02411714,3.08946878 C4.34108527,3.08946878 4.58914729,2.83783784 4.58914729,2.51630941 L4.58914729,2.20876048 L11.5073213,2.20876048 L11.5073213,2.51630941 C11.5073213,2.83783784 11.7553833,3.08946878 12.0723514,3.08946878 C12.3893196,3.08946878 12.6373816,2.83783784 12.6373816,2.51630941 L12.6373816,2.20876048 L14.8837209,2.20876048 L14.8837209,3.69058714 L1.13006029,3.69058714 L1.13006029,2.20876048 L1.13006029,2.20876048 Z M1.13006029,4.83690587 L14.8699397,4.83690587 L14.8699397,13.8676608 L1.13006029,13.8676608 L1.13006029,4.83690587 Z" id="Shape"></path>
                    <path d="M11.4508929,7 L3.54910714,7 C3.24107143,7 3,7.2195122 3,7.5 C3,7.7804878 3.24107143,8 3.54910714,8 L11.4508929,8 C11.7589286,8 12,7.7804878 12,7.5 C12,7.2195122 11.7589286,7 11.4508929,7 Z" id="Shape"></path>
                    <path d="M7.45623342,10 L3.54376658,10 C3.23872679,10 3,10.2195122 3,10.5 C3,10.7804878 3.23872679,11 3.54376658,11 L7.45623342,11 C7.76127321,11 8,10.7804878 8,10.5 C8,10.2195122 7.76127321,10 7.45623342,10 Z" id="Shape"></path>
                </g>
            </g>
        </g>
    </g>
</svg>