<?xml version="1.0" encoding="UTF-8"?>
<svg width="58px" height="58px" viewBox="0 0 58 58" version="1.1" xmlns="http://www.w3.org/2000/svg" xmlns:xlink="http://www.w3.org/1999/xlink">
    <g id="Page-1" stroke="none" stroke-width="1" fill="none" fill-rule="evenodd">
        <g id="novoc-main" transform="translate(-1335.000000, -679.000000)">
            <g id="свернуть" transform="translate(1335.000000, 679.000000)">
                <g id="Oval">
                    <use fill="black" fill-opacity="1" filter="url(#filter-2)" xlink:href="#path-1"></use>
                    <use fill="#FFFFFF" fill-rule="evenodd" xlink:href="#path-1"></use>
                </g>
                <g id="up" transform="translate(15.000000, 13.000000)" fill="#20262E" fill-rule="nonzero" opacity="0.504575893">
                    <path d="M13.7730612,31.9869388 C14.3934694,31.9869388 14.8963265,31.4840816 14.8963265,30.8702041 L14.8963265,10.475102 L19.9640816,15.5428571 C20.1795918,15.7583673 20.4669388,15.8693878 20.7542857,15.8693878 C21.0416327,15.8693878 21.3289796,15.7583673 21.5444898,15.5428571 C21.9820408,15.1053061 21.9820408,14.3934694 21.5444898,13.9559184 L14.5632653,6.97469388 C14.1257143,6.53714286 13.4138776,6.53714286 12.9763265,6.97469388 L6.00163265,13.9559184 C5.56408163,14.3934694 5.56408163,15.1053061 6.00163265,15.5428571 C6.43918367,15.9804082 7.15102041,15.9804082 7.58857143,15.5428571 L12.6563265,10.475102 L12.6563265,30.8702041 C12.6563265,31.4840816 13.1526531,31.9869388 13.7730612,31.9869388 Z" id="Shape"></path>
                    <path d="M27.5461224,1.12326531 C27.5461224,0.502857143 27.0432653,0 26.4293878,0 L1.11673469,0 C0.496326531,0 0,0.502857143 0,1.12326531 C0,1.74367347 0.502857143,2.24653061 1.11673469,2.24653061 L26.4293878,2.24653061 C27.0497959,2.24 27.5461224,1.73714286 27.5461224,1.12326531 Z" id="Shape"></path>
                </g>
            </g>
        </g>
    </g>
</svg>