<?xml version="1.0" encoding="UTF-8"?>
<svg width="15px" height="20px" viewBox="0 0 15 20" version="1.1" xmlns="http://www.w3.org/2000/svg" xmlns:xlink="http://www.w3.org/1999/xlink">
    <desc>Created with Sketch.</desc>
    <g id="Symbols" stroke="none" stroke-width="1" fill="none" fill-rule="evenodd">
        <g id="подвал" transform="translate(-1010.000000, -80.000000)" fill="#079FC2">
            <g id="lamp-icon">
                <g transform="translate(1010.000000, 80.000000)">
                    <path d="M10.0933333,11.1024444 C9.15333333,11.9168889 8.42888889,12.9702222 8.01888889,14.1691111 C7.94888889,14.178 7.88,14.1857778 7.81,14.1924444 C7.58666667,14.2146667 7.35666667,14.2268889 7.12666667,14.2268889 C6.89,14.2268889 6.65555556,14.2157778 6.42555556,14.1924444 C6.35888889,14.1857778 6.28888889,14.178 6.22222222,14.1702222 C5.77666667,12.8991111 4.98222222,11.7891111 3.95444444,10.9602222 L3.95444444,10.958 C2.84777778,10.0468889 2.13777778,8.66577778 2.1333267,7.12133333 C2.12888889,4.37577778 4.36,2.138 7.10666667,2.1335452 C9.85222222,2.128 12.0922222,4.35911111 12.0944672,7.10466667 C12.0988889,8.58577778 11.4522222,9.918 10.4233333,10.8335556 C10.3166667,10.9268889 10.2088889,11.018 10.0933333,11.1024444 M7.10333333,0.00021178101 C3.18111111,0.00688888889 -0.00444444444,3.20244444 -4.64497235e-06,7.12466667 C0.00222222222,7.93577778 0.141111111,8.718 0.394444444,9.44577778 C0.837777778,10.718 1.63222222,11.8268889 2.66111111,12.6546667 C3.59555556,13.4246667 4.24444444,14.5257778 4.42666667,15.778 L4.42888889,15.778 C4.43777778,15.8702222 4.50111111,15.9468889 4.58333333,15.9768889 C4.58555556,15.978 4.59,15.978 4.59222222,15.9791111 C4.59888889,15.9813333 4.60555556,15.9824444 4.60888889,15.9835556 C5.25222222,16.1646667 5.92222222,16.2791111 6.61222222,16.3168889 C6.78333333,16.3257778 6.95555556,16.3302222 7.12888889,16.3302222 C7.29777778,16.3302222 7.46777778,16.3246667 7.63444444,16.3146667 C8.32888889,16.2768889 9.00444444,16.1613333 9.65111111,15.9757778 L9.65333333,15.9757778 L9.65333333,15.9746667 C9.73111111,15.9491111 9.79333333,15.8824444 9.81333333,15.8013333 C9.81333333,15.788 9.81555556,15.7757778 9.81555556,15.7657778 C9.98666667,14.5768889 10.5811111,13.5213333 11.4388889,12.758 C11.5455556,12.6635556 11.6555556,12.5713333 11.7733333,12.4868889 C12.7088889,11.6735556 13.4311111,10.6191111 13.8433333,9.42244444 C14.0955556,8.69355556 14.23,7.91244444 14.2278049,7.10133333 C14.2211111,3.18022222 11.0244444,-0.00644444444 7.10333333,0.00021178101" id="Fill-1"></path>
                    <path d="M9.68311111,16.766 C9.72866667,16.766 9.76533333,16.8026667 9.76755556,16.8471111 L9.76755556,16.8471111 L9.76727778,16.8539167 C9.72422222,17.9015556 9.07977778,18.7915556 8.16644444,19.1837778 C7.84533333,19.3204444 7.49311111,19.3971111 7.12422222,19.3982222 C6.75533333,19.3982222 6.40644444,19.3248889 6.08755556,19.1893333 C5.17311111,18.8026667 4.522,17.916 4.47533333,16.8726667 L4.47533333,16.8726667 C4.47311111,16.8615556 4.47311111,16.8526667 4.47311111,16.8426667 C4.47866667,16.8026667 4.51422222,16.7682222 4.55755556,16.7682222 C4.56422222,16.7682222 4.56755556,16.7693333 4.57422222,16.7704444 C4.57866667,16.7704444 4.58311111,16.7726667 4.58533333,16.7726667 C5.22977778,16.9426667 5.90088889,17.0493333 6.59088889,17.0837778 C6.76866667,17.0937778 6.95088889,17.0971111 7.13311111,17.0971111 C7.30644444,17.0971111 7.48422222,17.0915556 7.65866667,17.0826667 C8.34644444,17.046 9.012,16.9382222 9.65977778,16.7704444 C9.65977778,16.7693333 9.66533333,16.7682222 9.66533333,16.7682222 C9.66977778,16.766 9.67644444,16.766 9.68311111,16.766 Z M9.54211111,6.30210863 C10.0087778,6.301 10.3887778,6.67322222 10.3976667,7.13877778 L10.3976667,7.13877778 L10.3976667,7.20544444 C10.3454444,8.97211111 8.89766667,10.3921111 7.11988889,10.3965581 C5.32766667,10.3987778 3.861,8.95544444 3.83211111,7.16877778 C3.83211111,6.69766667 4.21433333,6.31544444 4.68322222,6.31544444 C5.14988889,6.31322222 5.52988889,6.68544444 5.53766667,7.14766667 L5.53766667,7.14766667 L5.53766667,7.16544444 C5.56655556,8.01211111 6.26544444,8.691 7.11544444,8.68877778 C7.95766667,8.68877778 8.64766667,8.02433333 8.68877778,7.191 L8.68877778,7.191 C8.691,7.16433333 8.691,7.13655556 8.691,7.111 L8.691,7.09211111 C8.72655556,6.651 9.091,6.30210863 9.54211111,6.30210863 Z" id="Combined-Shape"></path>
                </g>
            </g>
        </g>
    </g>
</svg>