<?xml version="1.0" encoding="UTF-8"?>
<svg width="12px" height="12px" viewBox="0 0 12 12" version="1.1" xmlns="http://www.w3.org/2000/svg" xmlns:xlink="http://www.w3.org/1999/xlink">
    <desc>Created with Sketch.</desc>
    <g id="Page-1" stroke="none" stroke-width="1" fill="none" fill-rule="evenodd">
        <g id="novoc-main" transform="translate(-1101.000000, -1270.000000)" fill="#079FC2" fill-rule="nonzero">
            <g id="недвижка" transform="translate(0.000000, 1168.000000)">
                <g id="карточка" transform="translate(130.000000, 60.000000)">
                    <g id="акции" transform="translate(951.000000, 0.000000)">
                        <g id="megaphone" transform="translate(20.000000, 41.000000)">
                            <path d="M9.49907813,3.77356641 L9.49907813,1.99603125 C9.49907813,1.82070703 9.41199609,1.65687891 9.26666016,1.55886328 C9.12132422,1.46077734 8.93678906,1.44144141 8.77426172,1.50704297 L4.62955078,3.18100781 L0.52734375,3.18100781 C0.236109375,3.18100781 0,3.41711719 0,3.70835156 L0,7.91300391 C0,8.20423828 0.236109375,8.44034766 0.52734375,8.44034766 L1.46541797,8.44034766 L1.46541797,12.4680586 C1.46541797,12.7168594 1.63930078,12.9318047 1.88261719,12.9837656 C2.12572266,13.035832 2.37244922,12.9106055 2.47408594,12.6834609 L4.37294531,8.44038281 L4.62951562,8.44038281 L8.77422656,10.1143477 C8.93984766,10.18125 9.12406641,10.1586797 9.266625,10.0625625 C9.41192578,9.96447656 9.49904297,9.80064844 9.49904297,9.62535938 L9.49904297,7.84782422 C10.4048789,7.61319141 11.0758008,6.78884766 11.0758008,5.81069531 C11.0758008,4.83254297 10.4048437,4.00816406 9.49907813,3.77356641 Z M2.52010547,9.99871875 L2.52010547,8.44034766 L3.2175,8.44034766 L2.52010547,9.99871875 Z M4.92950391,7.42408594 C4.86675,7.39870312 4.79970703,7.38569531 4.73203125,7.38569531 C3.84321094,7.38569531 1.83297656,7.38569531 1.0546875,7.38569531 L1.0546875,4.23573047 L4.73199609,4.23573047 C4.79967188,4.23573047 4.86671484,4.22272266 4.92946875,4.19733984 L8.44439063,2.77773047 C8.44439063,3.44225391 8.44439063,8.18834766 8.44439063,8.84369531 L4.92950391,7.42408594 Z M9.49904297,6.71772656 L9.49904297,4.90362891 C9.81101953,5.08573828 10.0211133,5.42415234 10.0211133,5.81069531 C10.0211133,6.19723828 9.81101953,6.53565234 9.49904297,6.71772656 Z" id="Shape"></path>
                        </g>
                    </g>
                </g>
            </g>
        </g>
    </g>
</svg>