<?xml version="1.0" encoding="UTF-8"?>
<svg width="15px" height="14px" viewBox="0 0 15 14" version="1.1" xmlns="http://www.w3.org/2000/svg" xmlns:xlink="http://www.w3.org/1999/xlink">
    <desc>Created with Sketch.</desc>
    <g id="Page-1" stroke="none" stroke-width="1" fill="none" fill-rule="evenodd">
        <g id="novoc-main" transform="translate(-440.000000, -1682.000000)" fill="#079FC2" fill-rule="nonzero">
            <g id="недвижка" transform="translate(0.000000, 1168.000000)">
                <g id="карточка" transform="translate(130.000000, 60.000000)">
                    <g id="скидки" transform="translate(298.000000, 443.000000)">
                        <g id="percentage" transform="translate(12.575758, 11.000000)">
                            <path d="M13.8068438,0.195125 C13.5503594,-0.0616875 13.1341875,-0.0616875 12.8777031,0.195125 L0.196984375,12.8758438 C-0.05971875,13.1324375 -0.05971875,13.5482813 0.196984375,13.804875 C0.32528125,13.9332813 0.4935,13.9974844 0.661609375,13.9974844 C0.82971875,13.9974844 0.9979375,13.9332813 1.126125,13.804875 L13.8068438,1.12415625 C14.0635469,0.8675625 14.0635469,0.45171875 13.8068438,0.195125 Z" id="Shape"></path>
                            <path d="M3.121125,0.007 C1.40021875,0.007 0,1.40732813 0,3.12823438 C0,4.84914062 1.40021875,6.24935938 3.121125,6.24935938 C4.84214062,6.24935938 6.24225,4.84903125 6.24225,3.128125 C6.24225,1.40721875 4.84203125,0.007 3.121125,0.007 Z M3.121125,4.93510937 C2.12471875,4.93510937 1.31414063,4.12442188 1.31414063,3.128125 C1.31414063,2.13182813 2.12482813,1.32114062 3.121125,1.32114062 C4.11753125,1.32114062 4.92810938,2.13182813 4.92810938,3.128125 C4.92810938,4.12442188 4.11753125,4.93510937 3.121125,4.93510937 Z" id="Shape"></path>
                            <path d="M10.878875,7.75457813 C9.15796875,7.75457813 7.75775,9.15479687 7.75775,10.8757031 C7.75775,12.5966094 9.15796875,13.9968281 10.878875,13.9968281 C12.5997812,13.9968281 14,12.5967188 14,10.8757031 C14,9.1546875 12.5997812,7.75457813 10.878875,7.75457813 Z M10.878875,12.6825781 C9.88246875,12.6825781 9.07189062,11.8718906 9.07189062,10.8755938 C9.07189062,9.87929688 9.88257813,9.06860937 10.878875,9.06860937 C11.8751719,9.06860937 12.6858594,9.87929688 12.6858594,10.8755938 C12.6858594,11.8718906 11.8752813,12.6825781 10.878875,12.6825781 Z" id="Shape"></path>
                        </g>
                    </g>
                </g>
            </g>
        </g>
    </g>
</svg>