<?xml version="1.0" encoding="UTF-8"?>
<svg width="13px" height="16px" viewBox="0 0 13 16" version="1.1" xmlns="http://www.w3.org/2000/svg" xmlns:xlink="http://www.w3.org/1999/xlink">
    <desc>Created with Sketch.</desc>
    <g id="Page-1" stroke="none" stroke-width="1" fill="none" fill-rule="evenodd">
        <g id="novoc-main" transform="translate(-1399.000000, -296.000000)" fill="#74CFB7" fill-rule="nonzero" stroke="#FFFFFF">
            <g id="обратный-звонок" transform="translate(1370.000000, 286.000000)">
                <path d="M36.514884,20.8049557 C36.9063134,20.8049557 37.6612129,20.022097 38.0526422,19.9801581 C38.44148,19.9473064 38.8277619,20.067706 39.1290729,20.315669 L40.1635648,21.1544462 L40.7926477,21.6716921 C41.2458185,22.0418337 41.3203249,22.7061819 40.9604031,23.1675114 L39.7861151,24.8171066 C39.7017307,24.9406851 39.557894,25.0099398 39.4086653,24.9988416 C34.0226892,24.4170692 29.9546824,19.8473618 30.0003812,14.4302491 C29.9982962,13.4624469 30.1252306,12.4986852 30.377831,11.564427 C30.405654,11.4730693 30.4803801,11.4036808 30.5735456,11.382692 L32.7963052,11.0192219 C33.065432,10.9662419 33.344556,11.0238303 33.5707375,11.1790013 C33.7969189,11.3341723 33.9511138,11.5738608 33.9985525,11.8440194 L34.1942672,12.6827966 L34.4459003,14.0807586 C34.5204568,14.4756511 34.4457294,14.8841607 34.236206,15.2270874 C34.0265117,15.5765779 33.0339587,15.9260684 32.838244,16.2615793 L32.838244,16.2615793 C33.3978631,18.2383908 34.7069929,19.9186915 36.4869248,20.9447519 L36.4869248,20.8049557 L36.514884,20.8049557 Z" id="phone-icon"></path>
            </g>
        </g>
    </g>
</svg>