<?xml version="1.0" encoding="UTF-8"?>
<svg width="14px" height="14px" viewBox="0 0 14 14" version="1.1" xmlns="http://www.w3.org/2000/svg" xmlns:xlink="http://www.w3.org/1999/xlink">
    <desc>Created with Sketch.</desc>
    <g id="Page-1" stroke="none" stroke-width="1" fill="none" fill-rule="evenodd">
        <g id="novoc-main" transform="translate(-1101.000000, -1243.000000)" fill="#079FC2" fill-rule="nonzero">
            <g id="недвижка" transform="translate(0.000000, 1168.000000)">
                <g id="карточка" transform="translate(130.000000, 60.000000)">
                    <g id="акции" transform="translate(951.000000, 0.000000)">
                        <path d="M33.3636364,17.7728909 L32.2270061,17.7728909 C32.3208485,17.5375212 32.3703576,17.2842909 32.3703576,17.023297 C32.3703576,16.4829394 32.1599333,15.9748667 31.7777758,15.5926242 C31.3956182,15.2104667 30.8875879,15 30.3471879,15 C29.8067879,15 29.2987152,15.2104667 28.9166424,15.5926242 L27,17.5091818 L25.0833576,15.5926667 C24.7012424,15.2104667 24.1931697,15 23.6528121,15 C23.1124545,15 22.6043818,15.2104242 22.222097,15.5927091 C21.6338,16.1811333 21.4846364,17.0447212 21.7739273,17.7728909 L20.6363636,17.7728909 C20.2849212,17.7728909 20,18.0578121 20,18.4092545 L20,27.5001333 C20,27.8515758 20.2849212,28.136497 20.6363636,28.136497 L33.3636364,28.136497 C33.7150788,28.136497 34,27.8515758 34,27.5001333 L34,18.4092545 C34,18.0577697 33.7150788,17.7728909 33.3636364,17.7728909 Z M29.8166727,16.4925273 C29.9584121,16.3507879 30.1468182,16.2727273 30.3472303,16.2727273 C30.5476424,16.2727273 30.7360485,16.3507879 30.8777879,16.4925273 C31.0196121,16.6343515 31.0976727,16.8228424 31.0976727,17.023297 C31.0976727,17.2237091 31.0196121,17.4121152 30.8777455,17.5539818 C30.7366,17.6951273 30.5484485,17.7728909 30.3479515,17.7728909 L30.3378121,17.7728061 C30.3349697,17.7727636 30.3321273,17.7727636 30.3293273,17.7727636 L28.5364364,17.7727636 L29.8166727,16.4925273 Z M23.1221273,17.5538545 C22.8295697,17.261297 22.8296121,16.7852121 23.1221273,16.4926121 C23.2639515,16.3507879 23.4524,16.2727273 23.6528121,16.2727273 C23.8531818,16.2727273 24.0416303,16.3507879 24.1833697,16.4925697 L25.4636061,17.7727636 L23.6707576,17.7727636 C23.6679576,17.7727636 23.6651152,17.7727636 23.6622727,17.7728061 L23.6520909,17.7728909 C23.4515515,17.7728909 23.2633576,17.6951273 23.1221273,17.5538545 Z M25.4635212,19.0456182 L24.1833697,20.3256424 C23.9348485,20.5741212 23.9348485,20.9770667 24.1833697,21.2255879 C24.3076303,21.3498909 24.470497,21.412 24.6333636,21.412 C24.7961879,21.412 24.959097,21.3498485 25.0833152,21.2255879 L27,19.3090727 L28.9166848,21.2256303 C29.0409455,21.3499333 29.2038121,21.4120424 29.3666788,21.4120424 C29.5295455,21.4120424 29.6924121,21.3498909 29.8166303,21.2256303 C30.0651515,20.9771091 30.0651091,20.5742061 29.8166303,20.3256848 L28.5364788,19.0456182 L32.7272727,19.0456182 L32.7272727,23.2274182 L21.2727273,23.2274182 L21.2727273,19.0456182 L25.4635212,19.0456182 Z M21.2727273,26.8637697 L21.2727273,24.5001455 L32.7272727,24.5001455 L32.7272727,26.8637697 L21.2727273,26.8637697 Z" id="calendar-icon"></path>
                    </g>
                </g>
            </g>
        </g>
    </g>
</svg>