<?xml version="1.0" encoding="UTF-8"?>
<svg width="19px" height="18px" viewBox="0 0 19 18" version="1.1" xmlns="http://www.w3.org/2000/svg" xmlns:xlink="http://www.w3.org/1999/xlink">
    <g id="Page-1" stroke="none" stroke-width="1" fill="none" fill-rule="evenodd">
        <g id="novoc-main" transform="translate(-545.000000, -1680.000000)" fill="#079FC2" fill-rule="nonzero">
            <g id="недвижка" transform="translate(0.000000, 1168.000000)">
                <g id="карточка" transform="translate(130.000000, 60.000000)">
                    <g id="субсидии" transform="translate(406.000000, 443.000000)">
                        <g id="ruble" transform="translate(9.615385, 9.000000)">
                            <path d="M9,0 C4.037625,0 0,4.037625 0,9 C0,13.962375 4.037625,18 9,18 C13.962375,18 18,13.962375 18,9 C18,4.037625 13.962375,0 9,0 Z M9,16.875 C4.658625,16.875 1.125,13.3425 1.125,9 C1.125,4.6575 4.658625,1.125 9,1.125 C13.341375,1.125 16.875,4.6575 16.875,9 C16.875,13.3425 13.341375,16.875 9,16.875 Z" id="Shape"></path>
                            <path d="M11.25,4.5 L8.4375,4.5 C8.127,4.5 7.875,4.752 7.875,5.0625 L7.875,10.125 L6.1875,10.125 C5.877,10.125 5.625,10.377 5.625,10.6875 C5.625,10.998 5.877,11.25 6.1875,11.25 L7.875,11.25 L7.875,12.9375 C7.875,13.248 8.127,13.5 8.4375,13.5 C8.748,13.5 9,13.248 9,12.9375 L9,11.25 L10.6875,11.25 C10.998,11.25 11.25,10.998 11.25,10.6875 C11.25,10.377 10.998,10.125 10.6875,10.125 L9,10.125 L9,9 L11.25,9 C12.490875,9 13.5,7.990875 13.5,6.75 C13.5,5.509125 12.490875,4.5 11.25,4.5 Z M11.25,7.875 L9,7.875 L9,5.625 L11.25,5.625 C11.871,5.625 12.375,6.130125 12.375,6.75 C12.375,7.369875 11.871,7.875 11.25,7.875 Z" id="Shape"></path>
                        </g>
                    </g>
                </g>
            </g>
        </g>
    </g>
</svg>