<?xml version="1.0" encoding="UTF-8"?>
<svg width="14px" height="14px" viewBox="0 0 14 14" version="1.1" xmlns="http://www.w3.org/2000/svg" xmlns:xlink="http://www.w3.org/1999/xlink">
    <!-- Generator: Sketch 58 (84663) - https://sketch.com -->
    <title>search icon</title>
    <desc>Created with Sketch.</desc>
    <g id="Symbols" stroke="none" stroke-width="1" fill="none" fill-rule="evenodd">
        <g id="шапка" transform="translate(-1296.000000, -172.000000)" fill="#74CFB7" fill-rule="nonzero">
            <g id="меню" transform="translate(0.000000, 145.000000)">
                <path d="M1309.75992,39.5773333 L1306.87435,36.6446667 C1306.85369,36.6236667 1306.83007,36.6076667 1306.80744,36.5893333 C1308.48145,34.2206667 1308.27712,30.9046667 1306.18198,28.7753333 C1305.01732,27.5916667 1303.4909,27 1301.96448,27 C1300.43806,27 1298.91164,27.5916667 1297.74699,28.7753333 C1295.41767,31.1426667 1295.41767,34.9806667 1297.74699,37.348 C1298.91164,38.5316667 1300.43806,39.1233333 1301.96448,39.1233333 C1303.28493,39.1233333 1304.60407,38.6783333 1305.69034,37.7926667 C1305.69887,37.8023333 1305.70543,37.8133333 1305.71461,37.8226667 L1308.60018,40.7553333 C1308.76023,40.9186667 1308.97014,41 1309.18005,41 C1309.38996,41 1309.59986,40.9186667 1309.75992,40.756 C1310.08003,40.4303333 1310.08003,39.9026667 1309.75992,39.5773333 Z M1301.96448,37.457 C1300.80934,37.457 1299.7234,36.9996667 1298.9064,36.1696667 C1297.22025,34.456 1297.22025,31.6676667 1298.9064,29.954 C1299.72307,29.124 1300.80934,28.6666667 1301.96448,28.6666667 C1303.11963,28.6666667 1304.20557,29.124 1305.02257,29.954 C1306.70872,31.6676667 1306.70872,34.456 1305.02257,36.1696667 C1304.20557,36.9996667 1303.11963,37.457 1301.96448,37.457 Z" id="search-icon"></path>
            </g>
        </g>
    </g>
</svg>